# xmcd
#
# Track frame offsets:
#	150
#	13851
#	27062
#	43987
#	61821
#	74989
#	85844
#	106638
#	117474
#	132239
#
# Disc length: 2081 seconds
# Revision: 0
# Processed by: cddbd v1.5.2PL0 Copyright (c) Steve Scherf et al.
# Submitted via: dBpowerAMP V12.0
#
DISCID=89081f0a
DTITLE=Jerry Jeff Walker - Cowjazz [MCA/Southcoast] (L)
DYEAR=1982
DGENRE=Country Rock
TTITLE0=Dealing With The Devil
TTITLE1=Don't Think Twice, It's Alright
TTITLE2=Old '59
TTITLE3=Green Back Dollar
TTITLE4=Lovin' Of The Game
TTITLE5=Laying My Life On The Line
TTITLE6=Still Around
TTITLE7=Promise
TTITLE8=Tangee
TTITLE9=Wind
EXTD=
EXTT0=
EXTT1=
EXTT2=
EXTT3=
EXTT4=
EXTT5=
EXTT6=
EXTT7=
EXTT8=
EXTT9=
PLAYORDER=
